<?xml version="1.0" encoding="UTF-8"?>
<svg xmlns="http://www.w3.org/2000/svg" viewBox="0 0 512 512" width="512" height="512">
<path d="M251.21 78.12C264.44 76.28 272.2 81.87 282.97 87.74C297.21 95.49 311.24 103.78 325.18 112.07C328.93 114.3 332.69 116.53 336.4 118.83C338.36 120.04 340.53 120.91 342.22 122.54C344.75 124.98 344.67 129.37 341.89 131.62C339.61 133.47 336.84 134.6 334.37 136.15C326.67 141.02 318.67 145.38 310.95 150.24C306.41 153.1 298.85 158.7 293.75 159.63C288.7 160.55 283.65 156.59 279.54 154.26C270.96 149.38 264.19 144.41 253.75 145.03C244.99 145.55 233.01 155.09 225.5 159.74C207.28 171.02 189.36 182.9 171.54 194.77C161.53 201.43 153.81 206.71 149.82 218.66C149.14 220.72 148.26 223.04 148.07 225.25C147.41 233 147.91 240.97 147.91 248.75C147.92 263.75 147.92 278.75 147.93 293.75C147.93 306.39 146.61 318.68 155.28 328.98C161.73 336.65 171.27 340.96 179.56 346.21C194.38 355.61 209.57 364.43 224.38 373.85C229.68 377.21 235.11 380.57 240.56 383.68C242.91 385.02 246.39 386.5 247.9 388.85C250.34 392.63 249.24 401.23 249.24 405.75C249.24 419.25 249.15 432.76 249.36 446.25C249.43 450.39 251.28 462.13 244.73 461.96C242.23 461.9 239.61 459.47 237.59 458.19C233.3 455.48 228.86 452.98 224.67 450.09C221.39 447.83 217.89 445.81 214.49 443.74C200.41 435.16 186.43 426.19 172.65 417.11C159.53 408.47 145.83 400.68 132.67 392.09C117.43 382.16 105.65 376.17 96.21 359.57C88.34 345.75 88.19 330.33 88.17 314.75C88.15 301.83 88.24 288.92 88.18 276C88.11 259.75 88.12 243.51 88.13 227.25C88.13 209.94 87.55 196.59 94.16 180.35C101.72 161.79 119.43 151.08 135.95 141.68C160.2 127.88 183.87 112.95 208.4 99.65C220.67 92.99 237.68 80 251.21 78.12ZM365.69 144.12C373.57 142.93 379.22 148.01 385.51 151.72C392.32 155.74 398.89 160.33 405.44 164.78C411.69 169.02 417.38 171.74 421.26 178.53C424.09 183.5 425.85 193.41 422.76 198.53C419.55 203.85 411.96 202.89 406.75 202.89C398.08 202.9 389.42 202.9 380.75 202.89C376.2 202.88 371.27 202.41 366.76 203.08C360.43 204.01 354.88 208.58 349.49 211.72C340.14 217.16 331 223.06 321.54 228.3C314.34 232.28 310.16 236.85 301.23 236C296.09 235.51 285.51 227.99 280.53 225.26C276.47 223.04 272.51 220.62 268.51 218.26C267.06 217.4 265.2 216.52 264.24 215.04C262.19 211.91 263.1 208.51 266.02 206.29C271.86 201.87 278.35 198.25 284.42 194.19C303.21 181.63 322.67 170.12 341.62 157.84C345.89 155.07 350.3 152.52 354.59 149.79C357.98 147.63 361.62 144.73 365.69 144.12ZM318.84 252.64C322.02 251.99 325.51 252.31 328.75 252.32C333.75 252.34 338.75 252.31 343.75 252.32C360.42 252.35 377.08 252.34 393.75 252.3C399.25 252.29 404.75 252.31 410.25 252.3C413.97 252.3 417.77 252.08 420.91 254.36C424.05 256.63 424.08 260.25 424.08 263.75C424.09 270.08 424.08 276.42 424.08 282.75C424.08 293.25 424 303.75 424 314.25C424.01 321.33 424.64 328.71 423.99 335.75C423.08 345.47 419.42 356.09 413.92 364.17C405.25 376.93 392.56 384.03 380 392.27C364.38 402.52 348.54 412.72 332.47 422.25C325.33 426.49 318.54 431.34 311.49 435.73C302.66 441.22 293.77 446.66 285.04 452.31C280.9 454.99 276.81 457.85 272.52 460.29C270.53 461.42 268.79 462.6 266.35 461.86C262 460.54 262.95 454.63 262.95 451.25C262.97 440.75 262.95 430.25 262.95 419.75C262.95 413.08 262.94 406.42 262.97 399.75C262.98 396.06 262.44 392.31 264.25 388.96C265.61 386.43 268.69 385.18 271.03 383.74C276.38 380.45 281.8 377.22 287.1 373.83C303.8 363.19 320.8 352.93 337.47 342.24C346.35 336.54 357.41 331.48 361.81 321.12C363.65 316.79 366.2 305.84 360.5 303.27C357.45 301.9 353.01 302.7 349.75 302.72C342.08 302.77 334.42 302.75 326.75 302.74C322.79 302.74 317.63 303.65 314.45 300.79C310.98 297.65 311.93 292.49 311.93 288.25C311.93 280.75 311.93 273.25 311.93 265.75C311.92 259.5 311.41 254.16 318.84 252.64Z" fill="currentColor" fill-rule="evenodd" stroke="currentColor" stroke-width="0.25" stroke-linejoin="round"/>
</svg>